# xmcd
#
# Track frame offsets: 
#        150
#        6557
#        22878
#        42875
#        59536
#        80390
#        102563
#        119157
#        141318
#        163634
#        183393
#        200463
#        217367
#        237540
#        256930
#        273474
#        297468
#        316684
#        337750
#
# Disc length: 4778 seconds
#
# Revision: 1
# Processed by: cddbd v1.5.2PL0 Copyright (c) Steve Scherf et al.
# Submitted via: ExactAudioCopy v1.3
#
DISCID=2612a813
DTITLE=Fabolous - Real Talk
DYEAR=2004
DGENRE=Hip-Hop
TTITLE0=Exodus (Performed By Black Ice)
TTITLE1=Don't Stop Won't Stop
TTITLE2=Real Talk (123)
TTITLE3=Gangsta
TTITLE4=Tit 4 Tat (feat. Pharrell)
TTITLE5=Baby (feat. Mike Shorey)
TTITLE6=Girls
TTITLE7=Church (feat. Charlie Murphy)
TTITLE8=Can You Hear Me
TTITLE9=Do The Damn Thing (feat. Young Jeezy)
TTITLE10=Holla At Somebody Real (feat. Lil Mo)
TTITLE11=It's Alright (feat. Sean Paul)
TTITLE12=Breathe
TTITLE13=Young and Sexy (feat. Pharrell and Mike Shorey)
TTITLE14=Round and Round
TTITLE15=In My Hood
TTITLE16=Ghetto (feat. Thara)
TTITLE17=Po Po (feat. Paul Cain and Nate Dogg)
TTITLE18=Into You (feat. Ashanti) (Bonus Track)
EXTD=YEAR: 2004
EXTT0=
EXTT1=
EXTT2=
EXTT3=
EXTT4=
EXTT5=
EXTT6=
EXTT7=
EXTT8=
EXTT9=
EXTT10=
EXTT11=
EXTT12=
EXTT13=
EXTT14=
EXTT15=
EXTT16=
EXTT17=
EXTT18=
PLAYORDER=
